<svg width="65" height="65" viewBox="0 0 65 65" fill="none" xmlns="http://www.w3.org/2000/svg">
<path d="M37.3242 30.4688C37.3242 30.4688 34.5935 32.5 32.5 32.5C30.4065 32.5 27.6758 30.4688 27.6758 30.4688" stroke="white" stroke-width="4.625" stroke-linecap="round" stroke-linejoin="round"/>
<path d="M38.5938 48.7501V45.7032C38.5938 42.0215 42.5979 38.5392 45.1954 36.0548C48.8567 32.5547 50.7813 27.8523 50.7813 22.3438C50.7813 12.1876 42.6906 4.06257 32.5001 4.06257C30.0975 4.05587 27.7172 4.52415 25.4962 5.4405C23.2752 6.35684 21.2572 7.70317 19.5583 9.40208C17.8594 11.101 16.5131 13.119 15.5967 15.34C14.6804 17.561 14.2121 19.9412 14.2188 22.3438C14.2188 27.6555 16.2259 32.6765 19.8048 36.0548C22.3883 38.4935 26.4063 41.9835 26.4063 45.7032V48.7501M28.4376 60.9376H36.5626M26.4063 54.8438H38.5938M32.5001 48.7501V32.5001" stroke="white" stroke-width="4.625" stroke-linecap="round" stroke-linejoin="round"/>
</svg>
