<svg width="213" height="44" viewBox="0 0 213 44" fill="none" xmlns="http://www.w3.org/2000/svg">
<path opacity="0.32" d="M0.285098 22.082L191.332 22.082" stroke="#BB00EA" stroke-miterlimit="10"/>
<path d="M169.817 22.0818C169.817 34.1833 179.45 43.9936 191.332 43.9936C203.215 43.9936 212.848 34.1833 212.848 22.0818C212.848 9.98018 203.215 0.169921 191.332 0.169921C179.45 0.16992 169.817 9.98018 169.817 22.0818Z" fill="url(#paint0_linear_417_13908)"/>
<path d="M174.427 22.0815C174.427 31.5639 181.995 39.2509 191.331 39.2509C200.668 39.2509 208.236 31.5639 208.236 22.0815C208.236 12.5991 200.668 4.91211 191.331 4.91211C181.995 4.91211 174.427 12.5991 174.427 22.0815Z" fill="white"/>
<defs>
<linearGradient id="paint0_linear_417_13908" x1="169.773" y1="22.0818" x2="212.848" y2="22.0818" gradientUnits="userSpaceOnUse">
<stop stop-color="#DA0166"/>
<stop offset="1" stop-color="#BE1E2D"/>
</linearGradient>
</defs>
</svg>
