<svg width="396" height="2638" viewBox="0 0 396 2638" fill="none" xmlns="http://www.w3.org/2000/svg">
<path fill-rule="evenodd" clip-rule="evenodd" d="M315.764 1205.53C300.205 1198.4 282.93 1194.38 264.732 1194.26L264.425 1194.25C244.615 1194.14 226.722 1182.39 218.79 1164.25L215.887 1157.61C208.116 1139.92 210.995 1118.97 224.153 1104.81C244.598 1082.72 257.199 1053.25 257.419 1020.88C257.638 989.867 246.442 961.34 227.784 939.38C213.781 922.844 210.356 899.842 219.346 880.101C228.383 860.273 248.204 847.914 270.005 847.57C272.335 847.514 274.667 847.414 277.044 847.272C337.677 843.008 387.194 794.271 392.418 733.723C396.444 686.976 374.444 644.873 339.307 620.311C318.964 605.546 294.034 596.738 267.022 596.561L266.715 596.551C246.905 596.433 229.012 584.69 221.08 566.551L218.177 559.91C210.406 542.215 213.285 521.264 226.443 507.106C246.888 485.013 259.49 455.548 259.709 423.175C259.929 392.165 248.732 363.638 230.074 341.678C216.071 325.141 212.646 302.14 221.636 282.398C230.673 262.571 250.494 250.212 272.295 249.867C274.626 249.811 276.957 249.711 279.334 249.569C339.967 245.305 389.485 196.569 394.708 136.021C401.165 59.1698 337.669 -5.15396 260.826 0.42721C200.012 4.86092 150.569 53.9953 145.735 114.731C142.93 149.612 154.619 181.89 175.4 206.115C189.324 222.386 192.266 245.371 183.416 264.854C174.379 284.682 154.559 297.041 132.757 297.385C130.427 297.441 128.095 297.541 125.762 297.684C64.3376 301.967 14.5199 351.836 10.1913 413.247C5.06355 485.704 62.3453 546.575 133.895 547.06L134.202 547.07C154.011 547.188 171.905 558.93 179.837 577.07L182.74 583.711C190.51 601.406 187.631 622.357 174.474 636.515C154.029 658.607 141.427 688.072 141.207 720.445C140.974 751.895 152.51 780.784 171.603 802.89C185.278 818.713 188.459 841.091 179.755 860.139L179.33 861.048C170.199 881.048 150.423 893.409 128.621 893.753C126.639 893.773 124.653 893.874 122.629 893.976L122.375 893.989C61.4024 897.891 11.4421 946.744 6.209 1007.6C2.188 1054.17 24.0187 1096.09 58.8904 1120.69C79.3153 1135.63 104.418 1144.54 131.606 1144.72L131.913 1144.73C151.723 1144.85 169.616 1156.59 177.548 1174.73L180.451 1181.37C188.222 1199.06 185.343 1220.02 172.185 1234.17C151.74 1256.27 139.138 1285.73 138.919 1318.1C138.685 1349.55 150.221 1378.44 169.314 1400.55C182.989 1416.37 186.17 1438.75 177.466 1457.8L177.041 1458.71C167.911 1478.71 148.134 1491.07 126.333 1491.41C124.347 1491.43 122.359 1491.53 120.332 1491.64L120.087 1491.65C59.1137 1495.55 9.15335 1544.4 3.9203 1605.26C-0.624768 1658.23 28.1878 1705.28 71.7387 1727.52C88.6933 1736.33 107.919 1741.37 128.303 1741.51L128.61 1741.52C148.42 1741.64 166.313 1753.38 174.245 1771.52L177.148 1778.16C184.919 1795.86 182.04 1816.81 168.882 1830.96C148.437 1853.06 135.835 1882.52 135.616 1914.9C135.382 1946.34 146.918 1975.23 166.011 1997.34C179.686 2013.16 182.867 2035.54 174.163 2054.59L173.738 2055.5C164.608 2075.5 144.831 2087.86 123.03 2088.2C121.048 2088.22 119.065 2088.32 117.042 2088.43L117.037 2088.43L116.784 2088.44C55.8106 2092.34 5.85027 2141.19 0.617222 2202.05C-3.40378 2248.62 18.4269 2290.54 53.2986 2315.14C73.7235 2330.08 98.8262 2338.99 126.014 2339.17L126.321 2339.18C146.131 2339.3 164.024 2351.04 171.956 2369.18L174.859 2375.82C182.63 2393.51 179.751 2414.47 166.593 2428.62C146.148 2450.72 133.547 2480.18 133.327 2512.55C133.093 2544 144.629 2572.89 163.722 2595C175.679 2609.6 214.352 2638.54 273.397 2637.54C330.023 2630.86 375.525 2585.38 382.246 2528.75C391.196 2453.56 332.711 2389.18 259.14 2388.71L258.833 2388.7C239.023 2388.59 221.13 2376.84 213.198 2358.7L210.295 2352.06C202.524 2334.37 205.403 2313.42 218.561 2299.26C239.006 2277.17 251.608 2247.7 251.827 2215.33C252.047 2184.32 240.851 2155.79 222.192 2133.83C208.189 2117.29 204.764 2094.29 213.755 2074.55C222.791 2054.72 242.612 2042.36 264.413 2042.02C266.744 2041.96 269.075 2041.86 271.452 2041.72C332.085 2037.46 381.603 1988.72 386.826 1928.17C390.852 1881.43 368.852 1839.32 333.716 1814.76C313.373 1800 288.443 1791.19 261.43 1791.01L261.123 1791C241.313 1790.88 223.42 1779.14 215.488 1761L212.585 1754.36C204.815 1736.66 207.694 1715.71 220.851 1701.56C241.296 1679.46 253.898 1650 254.117 1617.63C254.337 1586.61 243.141 1558.09 224.482 1536.13C210.479 1519.59 207.055 1496.59 216.045 1476.85C225.082 1457.02 244.902 1444.66 266.704 1444.32C269.034 1444.26 271.365 1444.16 273.742 1444.02C334.376 1439.76 383.893 1391.02 389.116 1330.47C393.753 1275.28 362.315 1226.55 315.764 1205.53Z" fill="url(#paint0_linear_1770_9325)"/>
<defs>
<linearGradient id="paint0_linear_1770_9325" x1="226.127" y1="1070.22" x2="175.17" y2="2634.71" gradientUnits="userSpaceOnUse">
<stop offset="0.01" stop-color="#F15A29"/>
<stop offset="1" stop-color="#BB00EA"/>
</linearGradient>
</defs>
</svg>
