<svg width="27" height="27" viewBox="0 0 27 27" fill="none" xmlns="http://www.w3.org/2000/svg">
<path d="M11.8205 8.64331C10.6033 9.5658 9.45172 10.5718 8.37407 11.654C3.2955 16.7326 0.724074 22.3915 2.62764 24.2969C4.53122 26.2005 10.1919 23.6272 15.2687 18.5505C16.351 17.4722 17.357 16.3201 18.2794 15.1022" stroke="#F4F4F4" stroke-width="2.32558" stroke-linecap="round" stroke-linejoin="round"/>
<path d="M18.2791 15.1023C21.2737 19.0773 22.4933 22.8166 21.0148 24.2952C19.1094 26.2005 13.4505 23.6273 8.37191 18.5505C3.29692 13.4702 0.725487 7.81304 2.62906 5.90768C4.10763 4.43089 7.84691 5.65054 11.8219 8.64339" stroke="#F4F4F4" stroke-width="2.32558" stroke-linecap="round" stroke-linejoin="round"/>
<path d="M10.9271 15.1022C10.9271 15.339 11.0211 15.5661 11.1886 15.7336C11.356 15.901 11.5831 15.9951 11.8199 15.9951C12.0567 15.9951 12.2838 15.901 12.4513 15.7336C12.6187 15.5661 12.7128 15.339 12.7128 15.1022C12.7128 14.8654 12.6187 14.6383 12.4513 14.4709C12.2838 14.3035 12.0567 14.2094 11.8199 14.2094C11.5831 14.2094 11.356 14.3035 11.1886 14.4709C11.0211 14.6383 10.9271 14.8654 10.9271 15.1022ZM15.4092 7.32725C14.8467 7.22903 14.8467 6.42367 15.4092 6.32725C16.4027 6.15443 17.3222 5.68967 18.0505 4.99222C18.7788 4.29477 19.2829 3.39624 19.4985 2.41117L19.5306 2.25582C19.6521 1.70225 20.4413 1.69867 20.5663 2.25046L20.6092 2.43082C20.8329 3.41152 21.3414 4.30425 22.0709 4.99686C22.8004 5.68946 23.7182 6.15107 24.7092 6.32367C25.2735 6.42189 25.2735 7.2326 24.7092 7.32903C23.7182 7.50164 22.8004 7.96324 22.0709 8.65585C21.3414 9.34846 20.8329 10.2412 20.6092 11.2219L20.5663 11.4022C20.4413 11.9558 19.6521 11.9522 19.5306 11.3987L19.4949 11.2433C19.2793 10.2583 18.7752 9.35972 18.0469 8.66227C17.3186 7.96483 16.3991 7.50007 15.4056 7.32725H15.4092Z" stroke="#F4F4F4" stroke-width="2.32558" stroke-linecap="round" stroke-linejoin="round"/>
</svg>
