<svg width="25" height="25" viewBox="0 0 25 25" fill="none" xmlns="http://www.w3.org/2000/svg">
<path d="M1.57911 22.0095C4.90138 21.1814 18.8447 17.6873 24.2432 17.7439C24.4776 17.7459 24.5127 18.0798 24.2842 18.1306C20.085 19.0388 5.60841 22.3982 2.29005 24.0232C1.86622 24.2302 1.35841 24.0095 1.20997 23.5623L1.05372 23.0955C0.8838 22.5818 1.13771 22.1189 1.57911 22.0095ZM1.48927 5.21852C0.805675 5.50758 0.905285 4.15407 1.37794 3.78688C2.74708 2.72243 6.09474 1.47047 8.03224 0.697036C8.43068 0.538833 8.8213 0.947036 8.64747 1.33961C7.59278 3.72438 4.49318 10.6716 2.56349 16.8181C2.46388 17.1345 1.81544 17.1521 1.78224 16.8201C1.60646 15.0232 2.85646 10.0681 5.51466 4.27516C5.61036 4.06813 5.40138 3.84547 5.17872 3.89625C4.39943 4.07985 3.20411 4.49586 1.48927 5.21852ZM22.0557 1.57985C22.0186 1.57008 21.7842 1.50758 21.6963 1.50368C15.8408 1.30055 13.1084 3.15993 13.0108 3.23805C12.6748 3.50954 12.6221 4.00172 12.8936 4.33571C13.1104 4.60329 13.3311 4.63649 13.4483 4.63454C13.4971 4.63258 13.54 4.66383 13.5537 4.71266C13.794 5.67164 13.835 7.04469 13.4072 8.65407C12.667 11.4314 11.0518 12.9666 10.2178 12.9666C10.1709 12.9666 10.126 12.9607 10.085 12.949C9.74513 12.8591 9.39747 12.322 9.20021 11.5818C8.90528 10.4666 8.95411 9.00563 9.33497 7.57204C9.85255 5.62282 10.8037 4.28688 11.6123 3.66383C11.9834 3.37868 12.2803 3.00758 12.4971 2.59157C12.499 2.58961 12.499 2.58571 12.501 2.58375C12.5986 2.39625 13.0537 1.51344 12.5225 1.50172C10.6026 1.50172 8.50685 3.84743 7.63771 7.11891C6.67872 10.7283 7.57325 14.0974 9.63575 14.6463C9.82716 14.697 10.0225 14.7224 10.2217 14.7224C12.1416 14.7224 14.2373 12.3767 15.1065 9.10524C15.5908 7.28493 15.6006 5.52711 15.2275 4.16188C15.1826 3.99977 15.2725 3.8318 15.4326 3.77711C16.0166 3.57594 17.1436 3.37086 18.1279 3.23024C18.2822 3.20875 18.3877 3.38454 18.292 3.50758C17.5693 4.46071 16.9639 5.70289 16.5869 7.12086C15.6279 10.7302 16.5225 14.0994 18.585 14.6482C18.7764 14.699 18.9717 14.7244 19.1709 14.7244C21.0908 14.7244 23.1865 12.3787 24.0557 9.10719C25.0127 5.49782 24.1182 2.12672 22.0557 1.57985ZM22.3545 8.65407C21.6162 11.4314 20.0029 12.9666 19.169 12.9666C19.1221 12.9666 19.0772 12.9607 19.0361 12.949C18.6963 12.8591 18.3486 12.322 18.1514 11.5818C17.8565 10.4666 17.9053 9.00563 18.2861 7.57204C19.0244 4.79664 20.6377 3.25954 21.4736 3.25954C21.5205 3.25954 21.5635 3.26539 21.6065 3.27711C22.3213 3.46852 23.1514 5.65602 22.3545 8.65407Z" fill="#F4F4F4" stroke="#F4F4F4" stroke-width="0.581395" stroke-miterlimit="10"/>
</svg>
