<svg width="22" height="21" viewBox="0 0 22 21" fill="none" xmlns="http://www.w3.org/2000/svg">
<path d="M2.63957 0.826416C1.44567 0.826416 0.488403 1.75236 0.488403 2.9072V13.3111C0.488403 13.863 0.715043 14.3922 1.11846 14.7825C1.52189 15.1727 2.06904 15.3919 2.63957 15.3919H11.2442V20.5939L14.471 17.4727L17.6977 20.5939V15.3919H19.8489C20.4194 15.3919 20.9665 15.1727 21.37 14.7825C21.7734 14.3922 22 13.863 22 13.3111V2.9072C22 2.35534 21.7734 1.82609 21.37 1.43586C20.9665 1.04564 20.4194 0.826416 19.8489 0.826416H15.5465H2.63957ZM11.2442 2.9072L14.471 4.98798L17.6977 2.9072V6.54857L20.9244 8.10916L17.6977 9.66975V13.3111L14.471 11.2303L11.2442 13.3111V9.66975L8.01747 8.10916L11.2442 6.54857V2.9072ZM2.63957 2.9072H8.01747V4.98798H2.63957V2.9072ZM2.63957 7.06877H5.86631V9.14955H2.63957V7.06877ZM2.63957 11.2303H8.01747V13.3111H2.63957V11.2303Z" fill="#F4F4F4"/>
</svg>
