<svg width="23" height="24" viewBox="0 0 23 24" fill="none" xmlns="http://www.w3.org/2000/svg">
<path d="M3.91116 0.694458L8.34329 17.5115L22.5814 18.6423L18.1477 1.82532L3.91116 0.694458ZM2.98043 0.77053C1.4806 1.34802 0.239333 3.35318 0.531263 4.43365L0.691259 5.00662C0.724095 4.92101 0.758211 4.83531 0.794296 4.7498C1.28216 3.59676 2.10188 2.47514 3.27433 1.88466L2.98043 0.77053ZM3.51427 2.79358C2.69426 3.28056 2.04133 4.15923 1.64355 5.09942C1.38525 5.70985 1.24785 6.34605 1.2128 6.87621L4.40345 18.3202C4.41793 18.2935 4.43161 18.2664 4.44653 18.2397C4.96851 17.3033 5.81624 16.4062 6.96339 15.8821L3.51422 2.79373L3.51427 2.79358ZM7.20028 16.7819C6.33005 17.2235 5.66703 17.9355 5.25266 18.6789C5.0329 19.0732 4.89476 19.4748 4.82496 19.834L5.40035 21.8967L5.48035 21.9028C5.29131 20.5629 6.0392 18.96 7.51106 17.9585L7.20028 16.7819ZM8.49718 18.4357C6.89392 19.2757 6.20752 20.9863 6.43722 21.9834L20.7061 23.1751C20.4432 22.7962 20.2791 22.3022 20.283 21.7889L19.18 21.3511L21.4615 20.9968L20.7969 20.3705C21.0727 20.0341 21.4716 19.7358 22.0184 19.5103L8.49718 18.4356V18.4357Z" fill="#F4F4F4"/>
</svg>
