<svg width="17" height="25" viewBox="0 0 17 25" fill="none" xmlns="http://www.w3.org/2000/svg">
<path d="M11.0531 18.5701V17.3982C11.0531 15.9822 12.5931 14.6428 13.5921 13.6873C15.0003 12.3411 15.7406 10.5325 15.7406 8.41385C15.7406 4.5076 12.6288 1.3826 8.70932 1.3826C7.78524 1.38002 6.86976 1.56013 6.01553 1.91257C5.16129 2.26501 4.38515 2.78283 3.73172 3.43625C3.0783 4.08968 2.56048 4.86582 2.20804 5.72006C1.8556 6.57429 1.67549 7.48977 1.67807 8.41385C1.67807 10.4568 2.45004 12.388 3.8265 13.6873C4.82016 14.6253 6.36557 15.9676 6.36557 17.3982V18.5701M7.14682 23.2576H10.2718M6.36557 20.9138H11.0531M8.70932 18.5701V12.3201" stroke="white" stroke-width="2.10227" stroke-linecap="round" stroke-linejoin="round"/>
</svg>
